<svg xmlns="http://www.w3.org/2000/svg" viewBox="0 0 32 32" width="32" height="32">
  <defs>
    <linearGradient id="grad1" x1="0%" y1="0%" x2="100%" y2="100%">
      <stop offset="0%" style="stop-color:#007bff;stop-opacity:1" />
      <stop offset="100%" style="stop-color:#0056b3;stop-opacity:1" />
    </linearGradient>
  </defs>
  
  <!-- Background circle -->
  <circle cx="16" cy="16" r="15" fill="url(#grad1)" stroke="#ffffff" stroke-width="1"/>
  
  <!-- Shopping cart body -->
  <path d="M8 12h16l-2 8H10L8 12z" fill="#ffffff" opacity="0.9"/>
  
  <!-- Shopping cart handle -->
  <path d="M8 12c0-2.2 1.8-4 4-4h8c2.2 0 4 1.8 4 4" fill="none" stroke="#ffffff" stroke-width="1.5" stroke-linecap="round"/>
  
  <!-- Cart wheels -->
  <circle cx="10" cy="22" r="2" fill="#ffffff" opacity="0.8"/>
  <circle cx="22" cy="22" r="2" fill="#ffffff" opacity="0.8"/>
  
  <!-- Shopping bag icon -->
  <path d="M12 8h8v2h-8z" fill="#ffffff" opacity="0.7"/>
  <path d="M11 8c0-1.1 0.9-2 2-2h6c1.1 0 2 0.9 2 2" fill="none" stroke="#ffffff" stroke-width="1" stroke-linecap="round"/>
  
  <!-- Small product dots -->
  <circle cx="14" cy="16" r="1" fill="#ffffff" opacity="0.6"/>
  <circle cx="18" cy="16" r="1" fill="#ffffff" opacity="0.6"/>
  <circle cx="16" cy="18" r="1" fill="#ffffff" opacity="0.6"/>
</svg> 