<svg width="200" height="50" viewBox="0 0 200 50" fill="none" xmlns="http://www.w3.org/2000/svg">
  <!-- Background circle for cart icon -->
  <circle cx="25" cy="25" r="20" fill="url(#gradient1)" stroke="url(#gradient2)" stroke-width="2"/>
  
  <!-- Shopping cart icon -->
  <path d="M15 20h2l1.5-6h8l1.5 6h2l-2-8h-12l-2 8z" fill="white"/>
  <circle cx="18" cy="28" r="2" fill="white"/>
  <circle cx="28" cy="28" r="2" fill="white"/>
  <path d="M16 22h8" stroke="white" stroke-width="1.5" stroke-linecap="round"/>
  
  <!-- Brand text -->
  <text x="55" y="20" font-family="Arial, sans-serif" font-size="18" font-weight="bold" fill="url(#gradient3)">Code</text>
  <text x="55" y="35" font-family="Arial, sans-serif" font-size="18" font-weight="bold" fill="url(#gradient4)">Alpha</text>
  
  <!-- Store text -->
  <text x="55" y="45" font-family="Arial, sans-serif" font-size="10" font-weight="500" fill="#6c757d">STORE</text>
  
  <!-- Decorative elements -->
  <circle cx="180" cy="15" r="3" fill="url(#gradient5)" opacity="0.6"/>
  <circle cx="185" cy="25" r="2" fill="url(#gradient5)" opacity="0.4"/>
  <circle cx="175" cy="35" r="2.5" fill="url(#gradient5)" opacity="0.5"/>
  
  <!-- Gradients -->
  <defs>
    <linearGradient id="gradient1" x1="0%" y1="0%" x2="100%" y2="100%">
      <stop offset="0%" style="stop-color:#667eea;stop-opacity:1" />
      <stop offset="100%" style="stop-color:#764ba2;stop-opacity:1" />
    </linearGradient>
    <linearGradient id="gradient2" x1="0%" y1="0%" x2="100%" y2="100%">
      <stop offset="0%" style="stop-color:#007bff;stop-opacity:1" />
      <stop offset="100%" style="stop-color:#0056b3;stop-opacity:1" />
    </linearGradient>
    <linearGradient id="gradient3" x1="0%" y1="0%" x2="100%" y2="0%">
      <stop offset="0%" style="stop-color:#667eea;stop-opacity:1" />
      <stop offset="100%" style="stop-color:#764ba2;stop-opacity:1" />
    </linearGradient>
    <linearGradient id="gradient4" x1="0%" y1="0%" x2="100%" y2="0%">
      <stop offset="0%" style="stop-color:#007bff;stop-opacity:1" />
      <stop offset="100%" style="stop-color:#0056b3;stop-opacity:1" />
    </linearGradient>
    <linearGradient id="gradient5" x1="0%" y1="0%" x2="100%" y2="100%">
      <stop offset="0%" style="stop-color:#28a745;stop-opacity:1" />
      <stop offset="100%" style="stop-color:#20c997;stop-opacity:1" />
    </linearGradient>
  </defs>
</svg> 